<svg xmlns="http://www.w3.org/2000/svg" width="100%" height="100%" viewBox="0 0 64 64" fill-rule="nonzero" stroke-linejoin="round" stroke-miterlimit="1.41421" xmlns:v="https://vecta.io/nano"><path d="M63.039 39.741c-4.274 17.143-21.637 27.576-38.782 23.301C7.119 58.768-3.314 41.404.962 24.262S22.597-3.317 39.737.957s27.576 21.64 23.302 38.784z" fill="#1c589a"/><path d="M44.678 23.832c-.425-4.284-4.129-5.71-8.801-6.105l-3.619-.145-2.889.047-3.617.128-2.303.038v-.018l-4.991.013.013 3.865s2.672-.059 2.628-.01c1.466-.004 1.945.845 2.086 1.579l.021 6.772a2.91 2.91 0 0 1 .383.024l-.382.002.028 9.487c-.063.461-.332 1.198-1.356 1.203.046.041-2.63.007-2.63.007l-.706 4.323 4.709-.014 2.585.013 3.616.053 2.891.019 3.618-.092c6.082-.367 10.335-1.913 10.847-7.627.413-4.601-1.757-6.647-5.213-7.466 2.095-1.075 3.401-2.961 3.084-6.096zm-5.023 12.871c.016 4.493-7.679 4.005-10.131 4.015l-.023-7.966c2.453-.007 10.141-.735 10.155 3.951zM37.937 25.47c.011 4.088-6.406 3.63-8.449 3.636l-.022-7.225c2.043-.006 8.457-.675 8.47 3.588z" fill="#fff"/></svg>