<svg xmlns="http://www.w3.org/2000/svg" width="130" height="70" xmlns:v="https://vecta.io/nano"><path d="M18.903 33.259H8.423a1.91 1.91 0 1 0 0 3.821h10.48l.107 3.665c.017.576.293 1.115.753 1.464L36.5 54.946a1.91 1.91 0 0 0 2.406-.075l6.257-5.407 3.526 5.056a1.91 1.91 0 0 0 1.567.818h46.738a1.91 1.91 0 0 0 1.159-.392l23.921-18.257c.057-.043.094-.103.146-.153.079-.075.158-.146.224-.234.061-.083.102-.173.149-.262.034-.065.082-.121.108-.191.047-.155.06-.257.076-.359.015-.09.037-.178.038-.269s-.014-.18-.024-.271c-.013-.107-.024-.21-.053-.313-.032-.135-.071-.18-.096-.236-.045-.101-.09-.199-.153-.29a1.76 1.76 0 0 0-.176-.211c-.046-.051-.078-.11-.13-.155L107.872 21.04c-.546-.484-1.321-.615-1.996-.338l-6.97 2.87v-6.66a1.91 1.91 0 0 0-1.911-1.911h-40.29a1.91 1.91 0 0 0-1.306.516l-6.226 5.826-10.562-6.087a1.91 1.91 0 0 0-2.111.135L19.764 28.128c-.461.35-.739.889-.754 1.465l-.107 3.666zM47.084 45.54a1.91 1.91 0 0 0-1.33-.802c-.538-.068-1.078.096-1.486.451l-6.687 5.779L22.802 39.72l-.078-2.64h1.346 91.191L96.347 51.515H51.25l-4.166-5.975zM50.75 25.1l6.709-6.278h37.624v7.603a1.91 1.91 0 0 0 .847 1.587c.53.354 1.201.422 1.791.18l8.505-3.502 9.656 8.57H54.427l4.714-6.043a1.91 1.91 0 1 0-3.012-2.35l-6.548 8.394H34.448l4.713-6.043a1.91 1.91 0 1 0-3.012-2.35l-6.547 8.394H24.07h-1.346l.078-2.642 15-11.415 10.689 6.156a1.91 1.91 0 0 0 2.26-.261z" stroke-width="1.5" stroke="#fff" fill-rule="evenodd"/></svg>