<svg xmlns="http://www.w3.org/2000/svg" width="130" height="70" fill="#000" fill-rule="evenodd" xmlns:v="https://vecta.io/nano"><path d="M52.397 2.679v-.845c0-.528-.434-.96-.963-.96h-9.422c-.53 0-.963.432-.963.96v35.87a.94.94 0 0 0 .723.922v63.041c0 .403.25.749.607.893v1.613a.98.98 0 0 0 .289.691c.328.307.645.307 1.329.298l.539-.01 4.836.01h.328c.472 0 .732-.038 1.002-.298a.98.98 0 0 0 .289-.691l.01-1.594c.385-.125.665-.49.665-.912V38.636a.95.95 0 0 0 .732-.932V4.6h.963v33.286a.96.96 0 0 0 .963.96.95.95 0 0 0 .963-.96V3.64a.96.96 0 0 0-.963-.96h-1.927zm-8.699 98.027V38.664h6.04v62.042h-6.04zm6.773-63.963h-7.495V2.795h7.495v33.949h0z" transform="matrix(0 -1 -1 0 118.143695 69.338603)"/><path d="M123.363 48.678a1.03 1.03 0 0 0 .269-.671l-.062-3.154a.91.91 0 0 0-.938-.938l-6.777-.056-.062-3.288h0v-.134a.91.91 0 0 0-.938-.938l-5.368.008.006-4.026a.91.91 0 0 0-.938-.938l-28.049-.224c-.268 0-.47.068-.671.269l-3.495 3.361-3.149-3.149c-.201-.201-.402-.268-.671-.267l-6.241-.057a.92.92 0 0 0-.941.941c0 .268.133.537.267.671.201.201.402.268.671.267l5.905-.009 2.948 2.948h-.134 0l-44.758-.131s-.067.067-.134 0c0 0-.067-.067-.134 0l-17.251 3.718c-.336.068-.537.269-.672.538l-5.505 1.619c-.403.135-.672.538-.673.941 0 .268.133.537.267.671s.201.201.402.268l5.567 1.669c.067.067.067.201.201.335s.335.201.469.201l17.307 3.865h.134s.067.067.134 0l84.617.471a1.03 1.03 0 0 0 .671-.269c.202-.202.269-.403.269-.671l.005-3.489 6.777.056c.201-.067.47-.202.672-.404h0zm-41.608 2.615l-.051-9.998 2.08.064-.016 9.931-2.013.003h0zm-5.905.009l-.051-9.998 4.026-.006.051 9.998-4.026.006h0zm-5.905.009l-.051-9.998 4.026-.006-.016 9.931-3.959.073h0zm-5.972-.058l-.051-9.998 4.026-.006.051 9.998-4.026.006h0zm-5.905.009l-.051-9.998 4.026-.006.051 9.998-4.026.006h0zm27.714.024l.016-9.931 21.808.167-.016 9.931-21.808-.167h0zm28.116.157l-4.362-.06.015-9.797 4.362.06-.015 9.797h0zM80.973 36.263l26.64.16-.005 3.087-30.062-.221 3.427-3.025h0zm-24.836 5.005l.051 9.998-1.879.003.016-9.931 1.812-.07h0zm-3.892.006l.051 9.998-21.205-.101.016-9.931 21.138.034h0zm-38.46 6.301l.004-2.818 15.372-3.312.052 9.462-15.429-3.331h0zm102.065-.496l.002-1.208 5.838-.076-.002 1.208-5.838.076h0z"/></svg>