<svg xmlns="http://www.w3.org/2000/svg" width="130" height="70" xmlns:v="https://vecta.io/nano"><g transform="matrix(0 -1 -1 0 124 60)" fill="none" fill-rule="evenodd"><path d="M25.268 39.056c-11.696 0-21.212 9.516-21.212 21.212S13.572 81.48 25.268 81.48 46.48 71.964 46.48 60.268s-9.516-21.212-21.212-21.212h0zm0 40.579c-10.68 0-19.367-8.688-19.367-19.367s8.688-19.367 19.367-19.367 19.367 8.688 19.367 19.367-8.687 19.367-19.367 19.367h0zm24.456-23.978c-1.257-6.679-5.175-12.425-10.622-16.08V5.378c0-2.543-2.068-4.611-4.611-4.611H16.045c-2.543 0-4.611 2.068-4.611 4.611v34.199C4.766 44.05.367 51.653.367 60.268s4.399 16.219 11.067 20.691v34.199c0 2.543 2.068 4.611 4.611 4.611H34.49c2.543 0 4.611-2.068 4.611-4.611V80.959c5.447-3.655 9.365-9.401 10.622-16.08h1.367a2.77 2.77 0 0 0 2.767-2.767v-3.689a2.77 2.77 0 0 0-2.766-2.766h-1.367zM16.046 2.611h18.445a2.77 2.77 0 0 1 2.767 2.767v33.077a24.75 24.75 0 0 0-11.989-3.087 24.75 24.75 0 0 0-11.989 3.087V5.378a2.77 2.77 0 0 1 2.766-2.767zM34.49 117.925H16.045a2.77 2.77 0 0 1-2.767-2.767V82.082a24.75 24.75 0 0 0 11.989 3.087 24.75 24.75 0 0 0 11.989-3.087v33.076a2.77 2.77 0 0 1-2.766 2.767zm-9.222-34.601c-12.713 0-23.056-10.343-23.056-23.056s10.343-23.056 23.056-23.056 23.056 10.343 23.056 23.056-10.343 23.056-23.056 23.056h0zm26.745-21.211c0 .508-.414.922-.922.922h-1.086c.103-.91.164-1.83.164-2.767s-.062-1.857-.164-2.767h1.086c.508 0 .922.414.922.922v3.69h0zM26.806 44.666a15.57 15.57 0 0 1 3.428.724c.097.032.194.047.292.047.387 0 .746-.245.875-.63.16-.485-.101-1.007-.583-1.167-1.239-.413-2.529-.685-3.835-.811-.492-.029-.957.322-1.007.831a.92.92 0 0 0 .83 1.006h0zm8.173 1.008c-.419-.281-.994-.169-1.279.256a.92.92 0 0 0 .256 1.279c2.551 1.698 4.534 4.082 5.733 6.89a.92.92 0 0 0 .849.56c.121 0 .245-.023.362-.074a.92.92 0 0 0 .486-1.21 17.5 17.5 0 0 0-6.407-7.701h0z" fill="#000"/><path d="M39.676 60.459h-15.45l-7.981-8.35" stroke="#000" stroke-width="2" stroke-linecap="round" stroke-linejoin="round"/></g></svg>